<?xml version="1.0" encoding="UTF-8" standalone="no"?>
<!-- Created with Inkscape (http://www.inkscape.org/) -->

<svg
   version="1.1"
   id="svg824"
   width="179"
   height="112"
   viewBox="0 0 179 112"
   sodipodi:docname="GeekWare logo.svg"
   inkscape:version="1.1 (c68e22c387, 2021-05-23)"
   xmlns:inkscape="http://www.inkscape.org/namespaces/inkscape"
   xmlns:sodipodi="http://sodipodi.sourceforge.net/DTD/sodipodi-0.dtd"
   xmlns="http://www.w3.org/2000/svg"
   xmlns:svg="http://www.w3.org/2000/svg"
   xmlns:rdf="http://www.w3.org/1999/02/22-rdf-syntax-ns#"
   xmlns:cc="http://creativecommons.org/ns#"
   xmlns:dc="http://purl.org/dc/elements/1.1/">
  <title
     id="title3668">GeekWare</title>
  <defs
     id="defs828" />
  <sodipodi:namedview
     id="namedview826"
     pagecolor="#ffffff"
     bordercolor="#666666"
     borderopacity="1.0"
     inkscape:pageshadow="2"
     inkscape:pageopacity="0.0"
     inkscape:pagecheckerboard="0"
     showgrid="false"
     inkscape:zoom="2.0782123"
     inkscape:cx="63.516129"
     inkscape:cy="63.75672"
     inkscape:window-width="1360"
     inkscape:window-height="705"
     inkscape:window-x="1358"
     inkscape:window-y="-8"
     inkscape:window-maximized="1"
     inkscape:current-layer="g830" />
  <g
     inkscape:groupmode="layer"
     inkscape:label="Image"
     id="g830">
    <g
       id="g3480"
       transform="translate(-4.8118278,61.110215)">
      <path
         style="fill:#d3061f"
         d="m 37.205519,36.330551 c -0.332188,-0.865666 -1.826851,-1.5 -3.534409,-1.5 -6.284515,0 -9.468695,-9.724021 -5.031385,-15.365141 2.52427,-3.209088 6.837597,-3.496581 9.432968,-0.628728 2.349176,2.595809 1.201393,3.710172 -2.036566,1.977268 -3.289765,-1.760628 -5.817242,0.472563 -5.687792,5.025535 0.15107,5.313151 4.770222,8.422473 5.929061,3.991066 0.822305,-3.1445 3.003563,-2.339038 3.698587,1.365757 0.945823,5.041668 -1.246755,9.104963 -2.770464,5.134243 z m 11.843507,0.529317 c 0.329954,-0.533876 -0.543489,-1.25766 -1.940983,-1.608408 -2.482873,-0.623162 -2.540898,-0.840777 -2.540898,-9.529317 0,-8.891592 0,-8.891592 6,-8.891592 7.392874,0 8.860853,2.678015 1.75,3.192502 -5.196386,0.375971 -6.391827,4.061054 -1.5,4.62392 1.5125,0.174033 2.75,0.706643 2.75,1.183578 0,0.476935 -1.2375,1.009545 -2.75,1.183578 -3.809639,0.438347 -3.892148,4.184188 -0.101831,4.623018 1.618379,0.187371 2.845796,1.062325 3.15638,2.25 0.279517,1.068872 1.337841,1.975032 2.351831,2.013689 1.68432,0.06421 1.670808,0.144545 -0.15638,0.929715 -2.778604,1.19401 -7.750774,1.21478 -7.018119,0.02932 z m 17,0 c 0.329954,-0.533876 -0.543489,-1.25766 -1.940983,-1.608408 -2.482873,-0.623162 -2.540898,-0.840777 -2.540898,-9.529317 0,-8.891592 0,-8.891592 6,-8.891592 7.392874,0 8.860853,2.678015 1.75,3.192502 -5.196386,0.375971 -6.391827,4.061054 -1.5,4.62392 1.5125,0.174033 2.75,0.706643 2.75,1.183578 0,0.476935 -1.2375,1.009545 -2.75,1.183578 -3.809639,0.438347 -3.892148,4.184188 -0.101831,4.623018 1.618379,0.187371 2.845796,1.062325 3.15638,2.25 0.279517,1.068872 1.337841,1.975032 2.351831,2.013689 1.68432,0.06421 1.670808,0.144545 -0.15638,0.929715 -2.778604,1.19401 -7.750774,1.21478 -7.018119,0.02932 z m 93.156484,-0.529317 c -0.31658,-0.825 -1.48972,-1.5 -2.60699,-1.5 -1.89216,0 -2.03138,-0.620071 -2.03138,-9.047717 0,-9.047718 0,-9.047718 6.17063,-8.75 7.65304,0.36924 9.20853,2.539167 2.14357,2.990304 -5.68867,0.363252 -7.32069,4.01901 -2.0642,4.623835 3.66685,0.421918 3.4929,1.784997 -0.32524,2.548626 -4.22946,0.845892 -3.67428,4.012114 0.77928,4.444272 2.35604,0.228622 3.03746,0.70074 2.61193,1.809655 -0.38195,0.995337 0.20729,1.705099 1.7506,2.108684 2.18369,0.571047 2.20698,0.655054 0.37988,1.37006 -3.21382,1.257671 -6.19658,0.995801 -6.80808,-0.597719 z m -80.638365,-10 c 0,-7.347681 0.308422,-9.5 1.361328,-9.5 0.895823,0 1.205234,0.816555 0.904844,2.387941 -0.492324,2.575428 1.198145,6.612059 2.769012,6.612059 0.530649,0 0.964816,-0.675 0.964816,-1.5 0,-0.825 0.414245,-1.5 0.920545,-1.5 0.506299,0 1.217054,-1.35 1.579455,-3 0.362401,-1.65 1.298156,-3 2.079455,-3 1.852195,0 1.809847,0.316581 -0.700606,5.237475 -2.12115,4.157798 -2.12115,4.157798 0.207053,8.419776 3.064238,5.609353 1.573016,6.846908 -2.467037,2.047379 -3.449527,-4.097993 -4.618865,-3.981021 -4.618865,0.462037 0,1.851852 -0.519608,2.833333 -1.5,2.833333 -1.22807,0 -1.5,-1.722222 -1.5,-9.5 z m 19,4.581787 c 0,-5.906584 -0.719805,-8.081787 -2.674376,-8.081787 -1.599113,0 -1.151951,-2.486256 1.258976,-7 1.335325,-2.5 1.335325,-2.5 1.375362,0.25 0.02562,1.759983 0.580047,2.75 1.540038,2.75 1.083335,0 1.499995,1.111111 1.499995,4 0,4.134629 0.73269,4.867315 2.8,2.8 0.93334,-0.933333 1.46667,-0.933333 2.40001,0 2.55539,2.5554 3.79999,1.310801 3.79999,-3.8 0,-4.333333 0.26667,-5 2,-5 1.81736,0 1.99875,0.662115 1.98635,7.25 -0.0231,12.256261 -1.1499,13.8774 -6.25566,9 -2.87876,-2.75 -2.87876,-2.75 -4.88813,0 -3.163526,4.329567 -4.842555,3.577796 -4.842555,-2.168213 z m 20.366975,3.432159 c -0.79163,-2.062953 3.25851,-14.958238 5.20561,-16.574182 3.19257,-2.649603 6.30709,2.125875 8.3547,12.810236 0.72362,3.775807 0.60575,4.25 -1.05639,4.25 -1.029,0 -1.8709,-0.644676 -1.8709,-1.432612 0,-3.349521 -6.41589,-2.908978 -7.30784,0.501787 -0.59861,2.289144 -2.51886,2.545992 -3.32518,0.444771 z m 9.60952,-8.457211 c 1.03622,-2.501653 0.98781,-3.235285 -0.29836,-4.521456 -1.96402,-1.964022 -3.30552,-1.948697 -4.07115,0.04651 -0.93556,2.438034 -0.71939,5.418211 0.39301,5.418211 0.55,0 1,0.701558 1,1.559017 0,2.256421 1.54252,0.959659 2.9765,-2.502282 z m 9.64671,8.403742 c -0.79978,-2.08419 -0.81175,-13.805566 -0.0162,-15.87869 0.9473,-2.468631 8.59276,-2.123532 10.96233,0.494814 1.79128,1.979339 1.79906,2.216414 0.16612,5.061651 -1.63357,2.846334 -1.62275,3.16231 0.23284,6.799577 1.82422,3.575793 1.79213,5.062171 -0.10929,5.062171 -0.44421,0 -1.557,-1.4625 -2.47286,-3.25 -0.91587,-1.7875 -2.07339,-3.514512 -2.57226,-3.837804 -0.49887,-0.323292 -0.0986,-2.002173 0.88953,-3.730847 1.83822,-3.215887 1.22143,-6.039733 -1.51871,-6.953112 -1.70394,-0.56798 -3.50896,4.676141 -2.16635,6.293886 0.68135,0.820982 0.77507,2.986456 0.26175,6.048279 -0.82305,4.909309 -2.5577,6.754558 -3.6569,3.890075 z M 33.10985,25.899649 c -0.316431,-0.511996 -0.117988,-1.213553 0.440983,-1.559017 0.558972,-0.345463 1.016312,0.07344 1.016312,0.930902 0,1.756526 -0.600055,2.015159 -1.457295,0.628115 z"
         id="path3484" />
      <path
         style="fill:#101010"
         d="m 89.008732,4.4295732 c -5.75,-2.161018 -5.75,-2.161018 -5.75,-26.5750172 0,-24.413999 0,-24.413999 20.009428,-23.794559 20.00944,0.619441 20.00944,0.619441 19.3916,-1.842239 -0.51014,-2.032562 -0.25031,-2.46168 1.49056,-2.46168 1.42384,0 2.10841,0.63324 2.10841,1.95031 0,1.07267 0.7875,2.428272 1.75,3.012447 1.52102,0.923161 1.42288,1.040159 -0.75,0.894166 -16.38338,-1.100779 -15.94132,-1.733573 -16.23157,23.235218 -0.26843,23.0921402 -0.26843,23.0921402 -6.18831,25.5000002 -7.072023,2.876489 -8.375051,2.883186 -15.830118,0.08135 z M 107.05686,-10.802228 c 0.39887,-5.429605 -1.20457,-9.441694 -3.77338,-9.441694 -1.49307,0 -2.02475,0.65648 -2.02475,2.5 0,2.77025 -3.536976,3.563022 -5.799998,1.3 -1.694059,-1.694059 -1.516091,-9.292779 0.252012,-10.760174 1.54338,-1.280891 5.547986,-0.539184 5.547986,1.027562 0,1.507838 2.64191,1.069005 4.0934,-0.679932 1.15587,-1.392734 0.89778,-2.00614 -1.89333,-4.5 -4.282636,-3.826535 -8.138979,-3.794699 -12.033016,0.09934 -7.615495,7.615493 -2.921845,22.013204 7.176299,22.013204 1.343471,0 2.713797,0.706562 3.045187,1.570137 1.31266,3.4207412 5.0889,1.2368862 5.40959,-3.128443 z m -7.724806,-9.441694 c 1.059436,0 1.268426,-4.324916 0.25783,-5.335515 -1.836653,-1.836653 -4.166636,2.508776 -3.038892,5.667546 0.805752,2.256883 1.235045,2.664681 1.492708,1.417969 0.198924,-0.9625 0.778684,-1.75 1.288354,-1.75 z m 25.926676,-28 c 0,-0.55 -0.45,-1 -1,-1 -0.55,0 -1,0.45 -1,1 0,0.55 0.45,1 1,1 0.55,0 1,-0.45 1,-1 z m -58.570887,2.779733 c 0.863989,-0.483512 1.570889,-1.756753 1.570889,-2.829423 0,-1.31707 0.684573,-1.95031 2.108408,-1.95031 1.738128,0 2.000421,0.430254 1.493522,2.449903 -0.591946,2.358498 -0.400115,2.464028 5.141592,2.828495 3.723992,0.24492 2.642015,0.37892 -3.064411,0.379521 -5.596102,5.89e-4 -8.246595,-0.320463 -7.25,-0.878186 z m 4.570889,-2.779733 c 0,-0.55 -0.45,-1 -1,-1 -0.55,0 -1,0.45 -1,1 0,0.55 0.45,1 1,1 0.55,0 1,-0.45 1,-1 z"
         id="path3482" />
    </g>
  </g>
  <metadata
     id="metadata3666">
    <rdf:RDF>
      <cc:Work
         rdf:about="">
        <dc:title>GeekWare</dc:title>
      </cc:Work>
    </rdf:RDF>
  </metadata>
</svg>
